<?xml version="1.0" encoding="utf-8"?>
<!-- Generator: Adobe Illustrator 25.2.3, SVG Export Plug-In . SVG Version: 6.00 Build 0)  -->
<svg version="1.1"
	 id="svg3476" sodipodi:docname="CSS3.svg" xmlns:cc="http://creativecommons.org/ns#" xmlns:dc="http://purl.org/dc/elements/1.1/" xmlns:inkscape="http://www.inkscape.org/namespaces/inkscape" xmlns:rdf="http://www.w3.org/1999/02/22-rdf-syntax-ns#" xmlns:sodipodi="http://sodipodi.sourceforge.net/DTD/sodipodi-0.dtd" xmlns:svg="http://www.w3.org/2000/svg"
	 xmlns="http://www.w3.org/2000/svg" xmlns:xlink="http://www.w3.org/1999/xlink" x="0px" y="0px" viewBox="0 0 1052 1052"
	 style="enable-background:new 0 0 1052 1052;" xml:space="preserve">
<style type="text/css">
	.st0{fill:#264DE4;}
	.st1{fill:#2965F1;}
	.st2{fill:#EBEBEB;}
	.st3{fill:#FFFFFF;}
</style>
<sodipodi:namedview  bordercolor="#666666" borderopacity="1.0" fit-margin-bottom="0" fit-margin-left="0" fit-margin-right="0" fit-margin-top="0" id="base" inkscape:current-layer="layer1" inkscape:cx="181.367" inkscape:cy="256" inkscape:document-units="px" inkscape:pageopacity="0.0" inkscape:pageshadow="2" inkscape:window-height="704" inkscape:window-maximized="1" inkscape:window-width="1366" inkscape:window-x="0" inkscape:window-y="27" inkscape:zoom="0.35" pagecolor="#ffffff" showgrid="false">
	</sodipodi:namedview>
<g id="layer1" transform="translate(-193.633,-276.3622)" inkscape:groupmode="layer" inkscape:label="Calque 1">
	<g id="g3013" transform="translate(119,276.3622)">
		<polygon id="polygon2989" class="st0" points="973.3,206.7 905.4,967.4 600.2,1052 295.8,967.5 228,206.7 		"/>
		<polygon id="polygon2991" class="st1" points="847.3,919 905.3,268.9 600.6,268.9 600.6,987.3 		"/>
		<polygon id="polygon2993" class="st2" points="383.5,551.1 391.8,644.4 600.6,644.4 600.6,551.1 		"/>
		<polygon id="polygon2995" class="st2" points="600.6,362.3 600.3,362.3 366.7,362.3 375.2,455.6 600.6,455.6 		"/>
		<polygon id="polygon2997" class="st2" points="600.6,890.5 600.6,793.4 600.2,793.5 496.3,765.5 489.7,691.1 439.2,691.1 
			396,691.1 409.1,837.6 600.2,890.6 		"/>
		<path id="path2999" inkscape:connector-curvature="0" d="M403.4,0h113v47.3h-65.8v47.3h65.8v47.3h-113V0z"/>
		<path id="path3001" inkscape:connector-curvature="0" d="M539,0h113v41.1h-65.7v8.2H652v94.5H539v-43.1h65.8v-8.2H539V0z"/>
		<path id="path3003" inkscape:connector-curvature="0" d="M674.6,0h113v41.1h-65.7v8.2h65.7v94.5h-113v-43.1h65.7v-8.2h-65.7V0z"/>
		<polygon id="polygon3005" class="st3" points="715.2,644.4 704.4,765.4 600.3,793.5 600.3,890.6 791.6,837.6 793,821.8 
			814.9,576.2 817.2,551.1 834,362.3 600.3,362.3 600.3,455.6 731.8,455.6 723.3,551.1 600.3,551.1 600.3,644.4 		"/>
	</g>
</g>
</svg>
