<?xml version="1.0" encoding="utf-8"?>
<!-- Generator: Adobe Illustrator 25.2.3, SVG Export Plug-In . SVG Version: 6.00 Build 0)  -->
<svg version="1.1" id="Layer_1" xmlns="http://www.w3.org/2000/svg" xmlns:xlink="http://www.w3.org/1999/xlink" x="0px" y="0px"
	 viewBox="0 0 1052 1052" style="enable-background:new 0 0 1052 1052;" xml:space="preserve">
<style type="text/css">
	.st0{fill:#E44D26;}
	.st1{fill:#F16529;}
	.st2{fill:#EBEBEB;}
	.st3{fill:#FFFFFF;}
</style>
<path d="M222.7,0H270v46.8h43.6V0h47.3v141.8h-47.3V94.5h-43.1v47.3h-47.7 M423.3,47.3h-41.7V0h130.9v47.3h-41.9v94.5h-47.3
	 M533.2,0h49.5l30.4,49.9L643.5,0H693v141.8h-47.3V71.5l-33.1,51l-33.1-51v70.3h-46.4 M716.5,0h47.3v94.9h67v46.8H716.5"/>
<path class="st0" d="M221.1,967.8l-67.8-761.1h745.4l-67.8,760.6L525.4,1052"/>
<path class="st1" d="M526,987.3V269.2h304.7l-58.1,649.3"/>
<path class="st2" d="M291.8,362.2H526v93.3H394.1l8.6,95.5H526v93.1H317.2 M321.4,691H415l6.6,74.6L526,793.5v97.4l-191.5-53.4"/>
<path class="st3" d="M759.4,362.2H525.6v93.3h225.2 M742.4,551.1H525.6v93.3h115.1l-10.9,121.2l-104.2,27.9v97l191.1-53"/>
</svg>
