<?xml version="1.0" encoding="utf-8"?>
<!-- Generator: Adobe Illustrator 25.2.3, SVG Export Plug-In . SVG Version: 6.00 Build 0)  -->
<svg version="1.1" id="Layer_1" xmlns="http://www.w3.org/2000/svg" xmlns:xlink="http://www.w3.org/1999/xlink" x="0px" y="0px"
	 viewBox="0 0 1052 1052" style="enable-background:new 0 0 1052 1052;" xml:space="preserve">
<style type="text/css">
	.st0{fill-rule:evenodd;clip-rule:evenodd;fill:#FF2D20;}
</style>
<path class="st0" d="M1036.4,238c0.4,1.4,0.6,2.8,0.6,4.3v225.8c0,5.9-3.2,11.3-8.3,14.3L839.2,591.5v216.3c0,5.9-3.1,11.3-8.2,14.3
	l-395.6,227.7c-0.9,0.5-1.9,0.8-2.9,1.2c-0.4,0.1-0.7,0.3-1.1,0.5c-2.8,0.7-5.7,0.7-8.4,0c-0.5-0.1-0.9-0.4-1.3-0.5
	c-0.9-0.3-1.9-0.6-2.7-1.1L23.3,822.1c-5.1-2.9-8.3-8.4-8.3-14.3V130.4c0-1.5,0.2-2.9,0.6-4.3c0.1-0.5,0.4-0.9,0.6-1.4
	c0.3-0.9,0.6-1.7,1-2.6c0.3-0.5,0.8-1,1.1-1.5c0.5-0.7,0.9-1.3,1.5-1.9c0.5-0.5,1.1-0.8,1.6-1.2c0.6-0.5,1.1-1,1.8-1.4h0L221.1,2.2
	c5.1-2.9,11.4-2.9,16.5,0l197.8,113.9h0c0.7,0.4,1.2,0.9,1.8,1.4c0.5,0.4,1.1,0.8,1.6,1.2c0.6,0.6,1,1.3,1.5,1.9
	c0.3,0.5,0.8,0.9,1.1,1.5c0.5,0.8,0.7,1.7,1.1,2.6c0.2,0.5,0.5,0.9,0.6,1.4c0.4,1.4,0.6,2.8,0.6,4.3v423.1l164.8-94.9V242.3
	c0-1.4,0.2-2.9,0.6-4.3c0.1-0.5,0.4-0.9,0.6-1.4c0.3-0.9,0.6-1.7,1.1-2.6c0.3-0.5,0.8-1,1.1-1.5c0.5-0.7,0.9-1.3,1.5-1.9
	c0.5-0.5,1.1-0.8,1.6-1.2c0.6-0.5,1.2-1,1.8-1.4h0l197.8-113.9c5.1-2.9,11.4-2.9,16.5,0L1028.7,228c0.7,0.4,1.2,0.9,1.9,1.4
	c0.5,0.4,1.1,0.8,1.6,1.2c0.6,0.6,1,1.3,1.5,1.9c0.4,0.5,0.8,0.9,1.1,1.5c0.5,0.8,0.7,1.7,1.1,2.6
	C1036,237.1,1036.3,237.5,1036.4,238z M1004,458.6V270.8l-69.2,39.8l-95.6,55.1v187.8L1004,458.6L1004,458.6z M806.2,798.3V610.4
	l-94.1,53.7L443.6,817.4V1007C443.6,1007,806.2,798.3,806.2,798.3z M48,158.9v639.4L410.6,1007V817.4L221.2,710.2l-0.1,0l-0.1,0
	c-0.6-0.4-1.2-0.9-1.8-1.4c-0.5-0.4-1.1-0.7-1.6-1.2l0-0.1c-0.5-0.5-0.9-1.2-1.4-1.7c-0.4-0.6-0.9-1-1.2-1.6l0-0.1
	c-0.4-0.6-0.6-1.4-0.9-2.1c-0.3-0.6-0.6-1.2-0.8-1.9v0c-0.2-0.8-0.2-1.6-0.3-2.4c-0.1-0.6-0.2-1.2-0.2-1.9v0V253.8l-95.6-55.1
	L48,158.9L48,158.9z M229.3,35.5L64.5,130.4l164.7,94.9l164.8-94.9L229.3,35.5L229.3,35.5z M315,627.5l95.6-55V158.9l-69.2,39.8
	l-95.6,55.1v413.6C245.8,667.3,315,627.5,315,627.5z M822.7,147.4l-164.8,94.9l164.8,94.9l164.7-94.9
	C987.4,242.3,822.7,147.4,822.7,147.4z M806.2,365.7l-95.6-55.1l-69.2-39.8v187.8l95.6,55l69.2,39.9
	C806.2,553.5,806.2,365.7,806.2,365.7z M427.1,788.8l241.7-138l120.8-68.9l-164.6-94.8L435.3,596.3l-172.8,99.5
	C262.6,695.7,427.1,788.8,427.1,788.8z"/>
</svg>
