<?xml version="1.0" encoding="utf-8"?>
<!-- Generator: Adobe Illustrator 25.2.3, SVG Export Plug-In . SVG Version: 6.00 Build 0)  -->
<svg version="1.1"
	 id="svg3430" xmlns:cc="http://creativecommons.org/ns#" xmlns:dc="http://purl.org/dc/elements/1.1/" xmlns:rdf="http://www.w3.org/1999/02/22-rdf-syntax-ns#" xmlns:svg="http://www.w3.org/2000/svg"
	 xmlns="http://www.w3.org/2000/svg" xmlns:xlink="http://www.w3.org/1999/xlink" x="0px" y="0px" viewBox="0 0 1052 1052"
	 style="enable-background:new 0 0 1052 1052;" xml:space="preserve">
<style type="text/css">
	.st0{clip-path:url(#SVGID_2_);}
	.st1{fill:url(#path3462_1_);}
	.st2{clip-path:url(#SVGID_4_);}
	.st3{fill:#777BB3;}
	.st4{clip-path:url(#SVGID_6_);}
	.st5{fill:#FFFFFF;}
</style>
<g id="g3438" transform="matrix(1.25,0,0,-1.25,-4.4,394.29875)">
	<g id="g3440">
		<g>
			<defs>
				<path id="SVGID_1_" d="M4.1-105.4c0-122.1,188.2-221.1,420.2-221.1l0,0c232.1,0,420.2,99,420.2,221.1l0,0
					c0,122.1-188.2,221.1-420.2,221.1l0,0C192.2,115.7,4.1,16.7,4.1-105.4"/>
			</defs>
			<clipPath id="SVGID_2_">
				<use xlink:href="#SVGID_1_"  style="overflow:visible;"/>
			</clipPath>
			<g id="g3442" class="st0">
				<g id="g3448">
					<g id="g3450">
						
							<radialGradient id="path3462_1_" cx="62.2837" cy="-614.916" r="1.52" gradientTransform="matrix(453.8224 0 0 -453.8224 -28009.3262 -279024.6562)" gradientUnits="userSpaceOnUse">
							<stop  offset="0" style="stop-color:#AEB2D5"/>
							<stop  offset="0.3" style="stop-color:#AEB2D5"/>
							<stop  offset="0.75" style="stop-color:#484C89"/>
							<stop  offset="1" style="stop-color:#484C89"/>
						</radialGradient>
						<path id="path3462" class="st1" d="M4.1-105.4c0-122.1,188.2-221.1,420.2-221.1l0,0c232.1,0,420.2,99,420.2,221.1l0,0
							c0,122.1-188.2,221.1-420.2,221.1l0,0C192.2,115.7,4.1,16.7,4.1-105.4"/>
					</g>
				</g>
			</g>
		</g>
	</g>
	<g id="g3464">
		<g>
			<defs>
				<rect id="SVGID_3_" x="-122.9" y="-413.2" width="1094.4" height="615.6"/>
			</defs>
			<clipPath id="SVGID_4_">
				<use xlink:href="#SVGID_3_"  style="overflow:visible;"/>
			</clipPath>
			<g id="g3466" class="st2">
				<g id="g3472" transform="translate(288,27.3594)">
					<path id="path3474" class="st3" d="M136.3-337.4c223,0,403.8,91.6,403.8,204.6c0,113-180.8,204.6-403.8,204.6
						s-403.8-91.6-403.8-204.6C-267.5-245.7-86.7-337.4,136.3-337.4"/>
				</g>
			</g>
		</g>
	</g>
	<g id="g3476">
		<g>
			<defs>
				<rect id="SVGID_5_" x="-122.9" y="-413.2" width="1094.4" height="615.6"/>
			</defs>
			<clipPath id="SVGID_6_">
				<use xlink:href="#SVGID_5_"  style="overflow:visible;"/>
			</clipPath>
			<g id="g3478" class="st4">
				<g id="g3484" transform="translate(161.7344,145.3066)">
					<path id="path3486" d="M70.7-276c18.3,0,32,3.4,40.7,10c8.6,6.6,14.5,18,17.6,34c2.9,14.9,1.8,25.3-3.3,30.9
						c-5.2,5.7-16.4,8.6-33.3,8.6H63.1L46.8-276H70.7z M-25.2-379c-1.4,0-2.7,0.6-3.5,1.7c-0.9,1.1-1.2,2.4-1,3.8l43.1,221.5
						c0.4,2.1,2.3,3.7,4.5,3.7h92.8c29.2,0,50.9-7.9,64.5-23.5c13.7-15.7,18-37.7,12.6-65.2c-2.2-11.2-5.9-21.7-11.2-31
						c-5.2-9.4-12.1-18-20.5-25.7c-10.1-9.4-21.4-16.2-33.8-20.3c-12.2-4-27.8-6-46.4-6H38.3l-10.7-55.2c-0.4-2.1-2.3-3.7-4.5-3.7
						H-25.2z"/>
				</g>
				<g id="g3488" transform="translate(159.2236,197.3071)">
					<path id="path3490" class="st5" d="M69.4-249h25.5c20.4,0,27.5-4.5,29.9-7.1c4-4.4,4.7-13.8,2.2-27
						c-2.9-14.8-8.2-25.3-15.9-31.2c-7.8-6-20.6-9.1-37.9-9.1H54.9L69.4-249z M113.2-195.8H20.4c-4.4,0-8.1-3.1-9-7.4l-43.1-221.5
						c-0.5-2.7,0.2-5.4,1.9-7.5c1.7-2.1,4.3-3.3,7-3.3h48.3c4.4,0,8.1,3.1,9,7.4l10,51.5h33.8c19.1,0,35.2,2.1,47.8,6.2
						c13,4.2,24.9,11.4,35.5,21.3c8.7,8,15.9,17.1,21.4,26.8c5.5,9.8,9.4,20.7,11.7,32.4c5.6,29,1.1,52.3-13.6,69.1
						C166.6-204.2,143.7-195.8,113.2-195.8 M43.8-332.6h29.4c19.5,0,33.9,3.7,43.5,11c9.5,7.3,15.9,19.6,19.3,36.7
						c3.2,16.5,1.7,28.1-4.4,34.9c-6.1,6.8-18.3,10.2-36.7,10.2H61.8L43.8-332.6 M113.2-204.9c27.9,0,48.3-7.3,61.1-22
						c12.8-14.7,16.7-35.1,11.5-61.4c-2.1-10.8-5.7-20.7-10.7-29.7c-5-9-11.6-17.2-19.6-24.6c-9.6-9-20.3-15.4-32.1-19.3
						c-11.8-3.8-26.8-5.7-45-5.7H37l-11.4-58.9h-48.3l43.1,221.5H113.2"/>
				</g>
				<g id="g3492" transform="translate(311.583,116.3066)">
					<path id="path3494" d="M148.6-291.1c-1.4,0-2.7,0.6-3.5,1.7c-0.9,1.1-1.2,2.4-1,3.8l19,98c1.8,9.3,1.4,16-1.3,18.8
						c-1.6,1.7-6.4,4.6-20.7,4.6h-34.5L82.8-287.4c-0.4-2.1-2.3-3.7-4.5-3.7H30.4c-1.4,0-2.7,0.6-3.5,1.7c-0.9,1.1-1.2,2.4-1,3.8
						L69-64.2c0.4,2.1,2.3,3.7,4.5,3.7h47.9c1.4,0,2.7-0.6,3.5-1.7c0.9-1.1,1.2-2.4,1-3.8l-10.4-53.5h37.1c28.3,0,47.5-5,58.6-15.2
						c11.4-10.5,14.9-27.2,10.6-49.7l-20-103.1c-0.4-2.1-2.3-3.7-4.5-3.7H148.6z"/>
				</g>
				<g id="g3496" transform="translate(293.6611,271.0571)">
					<path id="path3498" class="st5" d="M139.3-210.7H91.4c-4.4,0-8.1-3.1-9-7.4L39.4-439.6c-0.5-2.7,0.2-5.4,1.9-7.5
						c1.7-2.1,4.3-3.3,7-3.3h47.9c4.4,0,8.1,3.1,9,7.4l23.2,119.5h30.7c14.2,0,17.2-3,17.3-3.2c0.9-0.9,2-5.2,0.1-14.9l-19-98
						c-0.5-2.7,0.2-5.4,1.9-7.5c1.7-2.1,4.3-3.3,7-3.3h48.6c4.4,0,8.1,3.1,9,7.4l20,103.1c4.7,24.2,0.7,42.4-11.9,54
						c-12.1,11.1-32.2,16.4-61.7,16.4h-31.6l9.3,48c0.5,2.7-0.2,5.4-1.9,7.5C144.6-211.9,142-210.7,139.3-210.7 M139.3-219.8
						l-11.4-58.9h42.7c26.8,0,45.3-4.7,55.5-14c10.2-9.4,13.2-24.5,9.2-45.5l-20-103.1h-48.6l19,98c2.2,11.2,1.4,18.8-2.4,22.8
						c-3.8,4.1-11.8,6.1-24,6.1h-38.3L96.2-441.3H48.3l43.1,221.5H139.3"/>
				</g>
				<g id="g3500" transform="translate(409.5498,145.3066)">
					<path id="path3502" d="M199.5-276c18.3,0,32,3.4,40.7,10c8.6,6.6,14.5,18,17.6,34c2.9,14.9,1.8,25.3-3.3,30.9
						c-5.2,5.7-16.4,8.6-33.3,8.6h-29.3L175.7-276H199.5z M103.7-379c-1.4,0-2.7,0.6-3.5,1.7c-0.9,1.1-1.2,2.4-1,3.8l43.1,221.5
						c0.4,2.1,2.3,3.7,4.5,3.7h92.8c29.2,0,50.9-7.9,64.5-23.5c13.7-15.7,18-37.7,12.6-65.2c-2.2-11.2-5.9-21.7-11.2-31
						c-5.2-9.4-12.1-18-20.5-25.7c-10.1-9.4-21.4-16.2-33.8-20.3c-12.2-4-27.8-6-46.4-6h-37.6l-10.7-55.2c-0.4-2.1-2.3-3.7-4.5-3.7
						H103.7z"/>
				</g>
				<g id="g3504" transform="translate(407.0391,197.3071)">
					<path id="path3506" class="st5" d="M198.2-249h25.5c20.4,0,27.5-4.5,29.9-7.1c4-4.4,4.7-13.8,2.2-27
						c-2.9-14.8-8.2-25.3-15.9-31.2c-7.8-6-20.6-9.1-37.9-9.1h-18.3L198.2-249z M242-195.8h-92.8c-4.4,0-8.1-3.1-9-7.4L97.2-424.7
						c-0.5-2.7,0.2-5.4,1.9-7.5c1.7-2.1,4.3-3.3,7-3.3h48.3c4.4,0,8.1,3.1,9,7.4l10,51.5h33.8c19.1,0,35.2,2.1,47.8,6.2
						c13,4.2,24.9,11.4,35.5,21.3c8.7,8,15.9,17.1,21.4,26.8c5.5,9.8,9.4,20.7,11.7,32.4c5.6,29,1.1,52.3-13.6,69.1
						C295.4-204.2,272.6-195.8,242-195.8 M172.7-332.6H202c19.5,0,33.9,3.7,43.5,11c9.5,7.3,15.9,19.6,19.3,36.7
						c3.2,16.5,1.7,28.1-4.4,34.9c-6.1,6.8-18.3,10.2-36.7,10.2h-33.1L172.7-332.6 M242-204.9c27.9,0,48.3-7.3,61.1-22
						c12.8-14.7,16.7-35.1,11.5-61.4c-2.1-10.8-5.7-20.7-10.7-29.7c-5-9-11.6-17.2-19.6-24.6c-9.6-9-20.3-15.4-32.1-19.3
						c-11.8-3.8-26.8-5.7-45-5.7h-41.3l-11.4-58.9h-48.3l43.1,221.5H242"/>
				</g>
			</g>
		</g>
	</g>
</g>
</svg>
