<?xml version="1.0" encoding="utf-8"?>
<!-- Generator: Adobe Illustrator 25.2.3, SVG Export Plug-In . SVG Version: 6.00 Build 0)  -->
<svg version="1.1" id="Layer_1" xmlns="http://www.w3.org/2000/svg" xmlns:xlink="http://www.w3.org/1999/xlink" x="0px" y="0px"
	 viewBox="0 0 1052 1052" style="enable-background:new 0 0 1052 1052;" xml:space="preserve">
<style type="text/css">
	.st0{fill:#FF3E00;}
	.st1{fill:#FFFFFF;}
</style>
<path class="st0" d="M907.2,139.2C810.1-0.8,616.6-41.8,477.6,46.5L232.5,203.3c-66.8,41.9-113.2,110.5-126.6,188.1
	c-11.6,65.1-1.8,131.9,29.4,189.9c-21.4,32.1-35.7,67.7-41.9,105.2c-14.3,79.3,4.5,161.3,50.8,226.4
	c98,139.9,290.6,180.9,429.6,92.7l245.1-156c66.8-41.9,113.2-110.5,126.6-188.1c11.6-65.1,1.8-131.9-29.4-189.9
	c21.4-32.1,35.7-67.7,41.9-105.2C973.2,286.2,954.5,204.2,907.2,139.2"/>
<path class="st1" d="M453.8,926.2c-79.3,20.5-162.2-10.7-208.6-77.5c-28.5-39.2-39.2-88.2-31.2-136.4c1.8-8,3.6-15.2,5.3-23.2
	l4.5-14.3l12.5,8.9c29.4,21.4,61.5,37.4,96.3,48.1l8.9,2.7l-0.9,8.9c-0.9,12.5,2.7,25.8,9.8,36.5c14.3,20.5,39.2,30.3,63.3,24.1
	c5.3-1.8,10.7-3.6,15.2-6.2l244.2-156c12.5-8,20.5-19.6,23.2-33.9c2.7-14.3-0.9-29.4-8.9-41c-14.3-20.5-39.2-29.4-63.3-23.2
	c-5.3,1.8-10.7,3.6-15.2,6.2l-93.6,59.7c-15.2,9.8-32.1,16.9-49.9,21.4c-79.3,20.5-162.2-10.7-208.6-77.5
	c-27.6-39.2-39.2-88.2-30.3-136.4c8-46.3,36.5-88.2,76.7-113.2l245.1-156c15.2-9.8,32.1-16.9,49.9-22.3
	c79.3-20.5,162.2,10.7,208.6,77.5c28.5,39.2,39.2,88.2,31.2,136.4c-1.8,8-3.6,15.2-6.2,23.2l-4.5,14.3l-12.5-8.9
	c-29.4-21.4-61.5-37.4-96.3-48.1l-8.9-2.7l0.9-8.9c0.9-12.5-2.7-25.8-9.8-36.5c-14.3-20.5-39.2-29.4-63.3-23.2
	c-5.3,1.8-10.7,3.6-15.2,6.2L378,411c-12.5,8-20.5,19.6-23.2,33.9s0.9,29.4,8.9,41c14.3,20.5,39.2,29.4,63.3,23.2
	c5.3-1.8,10.7-3.6,15.2-6.2l93.6-59.7c15.2-9.8,32.1-16.9,49.9-22.3c79.3-20.5,162.2,10.7,208.6,77.5
	c28.5,39.2,39.2,88.2,31.2,136.4c-8,46.3-36.5,88.2-76.7,113.2l-245.1,156C488.5,913.7,471.6,920.9,453.8,926.2"/>
</svg>
